HIERARCHY
ROOT hip
{
OFFSET -0.33 92.73 0.17
CHANNELS 6 Xposition Yposition Zposition Zrotation Xrotation Yrotation
JOINT abdomen
{
OFFSET 0 7.23 0
CHANNELS 6 Xposition Yposition Zposition Zrotation Xrotation Yrotation
JOINT chest
{
OFFSET 0 16.54 0
CHANNELS 6 Xposition Yposition Zposition Zrotation Xrotation Yrotation
JOINT neck
{
OFFSET 0 34.21 0
CHANNELS 6 Xposition Yposition Zposition Zrotation Xrotation Yrotation
JOINT head
{
OFFSET 0 6.29 0
CHANNELS 6 Xposition Yposition Zposition Zrotation Xrotation Yrotation
End Site
{
OFFSET 0 21.21 0
}
}
}
JOINT lCollar
{
OFFSET 4.06 26.61 -1.12
CHANNELS 6 Xposition Yposition Zposition Zrotation Xrotation Yrotation
JOINT lShldr
{
OFFSET 14.17 0 0
CHANNELS 6 Xposition Yposition Zposition Zrotation Xrotation Yrotation
JOINT lForeArm
{
OFFSET 26.12 0 0
CHANNELS 6 Xposition Yposition Zposition Zrotation Xrotation Yrotation
JOINT lHand
{
OFFSET 27.71 0 0
CHANNELS 6 Xposition Yposition Zposition Zrotation Xrotation Yrotation
JOINT lThumb1
{
OFFSET 2.29 -0.46 1.83
CHANNELS 6 Xposition Yposition Zposition Zrotation Xrotation Yrotation
JOINT lThumb2
{
OFFSET 5.29 0 0
CHANNELS 6 Xposition Yposition Zposition Zrotation Xrotation Yrotation
JOINT lThumb3
{
OFFSET 3.01 0 0
CHANNELS 6 Xposition Yposition Zposition Zrotation Xrotation Yrotation
End Site
{
OFFSET 2.62 0 0
}
}
}
}
JOINT lIndex1
{
OFFSET 9.37 0.29 2.59
CHANNELS 6 Xposition Yposition Zposition Zrotation Xrotation Yrotation
JOINT lIndex2
{
OFFSET 4.34 0 0
CHANNELS 6 Xposition Yposition Zposition Zrotation Xrotation Yrotation
JOINT lIndex3
{
OFFSET 2.16 0 0
CHANNELS 6 Xposition Yposition Zposition Zrotation Xrotation Yrotation
End Site
{
OFFSET 2.20 0 0
}
}
}
}
JOINT lMid1
{
OFFSET 9.47 0.83 0.29
CHANNELS 6 Xposition Yposition Zposition Zrotation Xrotation Yrotation
JOINT lMid2
{
OFFSET 4.77 0 0
CHANNELS 6 Xposition Yposition Zposition Zrotation Xrotation Yrotation
JOINT lMid3
{
OFFSET 2.87 0 0
CHANNELS 6 Xposition Yposition Zposition Zrotation Xrotation Yrotation
End Site
{
OFFSET 2.09 0 0
}
}
}
}
JOINT lRing1
{
OFFSET 8.65 1.01 -1.70
CHANNELS 6 Xposition Yposition Zposition Zrotation Xrotation Yrotation
JOINT lRing2
{
OFFSET 4.54 0 0
CHANNELS 6 Xposition Yposition Zposition Zrotation Xrotation Yrotation
JOINT lRing3
{
OFFSET 2.50 0 0
CHANNELS 6 Xposition Yposition Zposition Zrotation Xrotation Yrotation
End Site
{
OFFSET 2.20 0 0
}
}
}
}
JOINT lPinky1
{
OFFSET 7.69 0.66 -3.90
CHANNELS 6 Xposition Yposition Zposition Zrotation Xrotation Yrotation
JOINT lPinky2
{
OFFSET 3.21 0 0
CHANNELS 6 Xposition Yposition Zposition Zrotation Xrotation Yrotation
JOINT lPinky3
{
OFFSET 1.92 0 0
CHANNELS 6 Xposition Yposition Zposition Zrotation Xrotation Yrotation
End Site
{
OFFSET 1.78 0 0
}
}
}
}
}
}
}
}
JOINT rCollar
{
OFFSET -4.06 26.61 -1.12
CHANNELS 6 Xposition Yposition Zposition Zrotation Xrotation Yrotation
JOINT rShldr
{
OFFSET -14.17 0 0
CHANNELS 6 Xposition Yposition Zposition Zrotation Xrotation Yrotation
JOINT rForeArm
{
OFFSET -26.12 0 0
CHANNELS 6 Xposition Yposition Zposition Zrotation Xrotation Yrotation
JOINT rHand
{
OFFSET -27.71 0 0
CHANNELS 6 Xposition Yposition Zposition Zrotation Xrotation Yrotation
JOINT rThumb1
{
OFFSET -2.29 -0.46 1.83
CHANNELS 6 Xposition Yposition Zposition Zrotation Xrotation Yrotation
JOINT rThumb2
{
OFFSET -5.29 0 0
CHANNELS 6 Xposition Yposition Zposition Zrotation Xrotation Yrotation
JOINT rThumb3
{
OFFSET -3.01 0 0
CHANNELS 6 Xposition Yposition Zposition Zrotation Xrotation Yrotation
End Site
{
OFFSET -2.62 0 0
}
}
}
}
JOINT rIndex1
{
OFFSET -9.37 0.29 2.59
CHANNELS 6 Xposition Yposition Zposition Zrotation Xrotation Yrotation
JOINT rIndex2
{
OFFSET -4.34 0 0
CHANNELS 6 Xposition Yposition Zposition Zrotation Xrotation Yrotation
JOINT rIndex3
{
OFFSET -2.16 0 0
CHANNELS 6 Xposition Yposition Zposition Zrotation Xrotation Yrotation
End Site
{
OFFSET -2.20 0 0
}
}
}
}
JOINT rMid1
{
OFFSET -9.47 0.83 0.29
CHANNELS 6 Xposition Yposition Zposition Zrotation Xrotation Yrotation
JOINT rMid2
{
OFFSET -4.77 0 0
CHANNELS 6 Xposition Yposition Zposition Zrotation Xrotation Yrotation
JOINT rMid3
{
OFFSET -2.87 0 0
CHANNELS 6 Xposition Yposition Zposition Zrotation Xrotation Yrotation
End Site
{
OFFSET -2.09 0 0
}
}
}
}
JOINT rRing1
{
OFFSET -8.65 1.01 -1.70
CHANNELS 6 Xposition Yposition Zposition Zrotation Xrotation Yrotation
JOINT rRing2
{
OFFSET -4.54 0 0
CHANNELS 6 Xposition Yposition Zposition Zrotation Xrotation Yrotation
JOINT rRing3
{
OFFSET -2.50 0 0
CHANNELS 6 Xposition Yposition Zposition Zrotation Xrotation Yrotation
End Site
{
OFFSET -2.20 0 0
}
}
}
}
JOINT rPinky1
{
OFFSET -7.69 0.66 -3.90
CHANNELS 6 Xposition Yposition Zposition Zrotation Xrotation Yrotation
JOINT rPinky2
{
OFFSET -3.21 0 0
CHANNELS 6 Xposition Yposition Zposition Zrotation Xrotation Yrotation
JOINT rPinky3
{
OFFSET -1.92 0 0
CHANNELS 6 Xposition Yposition Zposition Zrotation Xrotation Yrotation
End Site
{
OFFSET -1.78 0 0
}
}
}
}
}
}
}
}
}
}
JOINT lThigh
{
OFFSET 8.73 -0 0
CHANNELS 6 Xposition Yposition Zposition Zrotation Xrotation Yrotation
JOINT lShin
{
OFFSET 0 -46.66 0
CHANNELS 6 Xposition Yposition Zposition Zrotation Xrotation Yrotation
JOINT lFoot
{
OFFSET 0 -40.14 0
CHANNELS 6 Xposition Yposition Zposition Zrotation Xrotation Yrotation
JOINT lToes
{
OFFSET 0 -8.88 14.22
CHANNELS 6 Xposition Yposition Zposition Zrotation Xrotation Yrotation
End Site
{
OFFSET 0 0 6.29
}
}
}
}
}
JOINT rThigh
{
OFFSET -8.73 0 -0
CHANNELS 6 Xposition Yposition Zposition Zrotation Xrotation Yrotation
JOINT rShin
{
OFFSET 0 -46.66 0
CHANNELS 6 Xposition Yposition Zposition Zrotation Xrotation Yrotation
JOINT rFoot
{
OFFSET 0 -40.14 0
CHANNELS 6 Xposition Yposition Zposition Zrotation Xrotation Yrotation
JOINT rToes
{
OFFSET 0 -8.88 14.22
CHANNELS 6 Xposition Yposition Zposition Zrotation Xrotation Yrotation
End Site
{
OFFSET 0 0 6.29
}
}
}
}
}
}
MOTION
Frames: 5
Frame Time: 0.03
-0.33 92.73 0.17 -0.73 -2.51 4.04 0 7.23 0 1.51 1.15 1.30 0 16.54 0 1.71 4.18 2.64 0 34.21 0 -0.14 19.18 -1.20 0 6.29 0 -0.43 -16.26 -6.15 4.06 26.61 -1.12 -2.04 -1.88 0.43 14.17 0 0 -76.29 30.93 4.33 26.12 0 0 -0.15 -3.42 -14.58 27.71 0 0 -3.24 -18.33 -1.78 2.29 -0.46 1.83 51.04 66.36 -67.94 5.29 0 0 -6.83 2.66 2.96 3.01 0 0 12.48 0 0 9.37 0.29 2.59 -20.94 -0.78 -0.04 4.34 0 0 -24.31 -0.51 3.29 2.16 0 0 -2.16 0 0 9.47 0.83 0.29 -21.26 -4.11 -0.22 4.77 0 0 -26.41 -0.56 2.24 2.87 0 0 3.95 0.07 0.39 8.65 1.01 -1.70 -22.13 -3.00 -1.03 4.54 0 0 -57.71 1.78 -2.71 2.50 0 0 6.76 0 0 7.69 0.66 -3.90 -28.07 -13.27 1.54 3.21 0 0 -67.07 -1.46 5.01 1.92 0 0 4.41 0 0 -4.06 26.61 -1.12 -0.51 0.09 -3.39 -14.17 0 0 76.11 23.04 -6.04 -26.12 0 0 0.26 -1.06 18.28 -27.71 0 0 -1.92 -16.87 -4.84 -2.29 -0.46 1.83 -46.38 62.83 69.08 -5.29 0 0 7.60 2.62 -3.80 -3.01 0 0 -12.48 0 0 -9.37 0.29 2.59 23.37 -2.97 -2.18 -4.34 0 0 24.69 -0.62 -3.85 -2.16 0 0 2.16 0 0 -9.47 0.83 0.29 36.42 -5.88 -1.17 -4.77 0 0 11.86 -15.99 -1.86 -2.87 0 0 -3.95 0.07 -0.39 -8.65 1.01 -1.70 40.50 0.29 -1.57 -4.54 0 0 14.16 0.26 1.48 -2.50 0 0 -6.76 0 0 -7.69 0.66 -3.90 46.02 -12.93 -2.57 -3.21 0 0 32.27 -0.25 1.35 -1.92 0 0 -4.41 0 0 8.73 -0 0 9.50 -22.73 15.11 0 -46.66 0 11.79 66.25 -7.34 0 -40.14 0 -5.82 -4.89 3.11 0 -8.88 14.22 0 0 0 -8.73 0 -0 2.35 -11.69 -17.55 0 -46.66 0 -3.48 35.86 0.89 0 -40.14 0 -3.49 -22.68 -9.14 0 -8.88 14.22 0 0 -0 
-0.23 93.37 -0.12 -0.03 -2.38 3.05 0 7.23 0 1.18 1.11 1.80 0 16.54 0 1.33 4.11 3.58 0 34.21 0 -0.33 19.41 -1.23 0 6.29 0 -0.58 -15.95 -6.71 4.06 26.61 -1.12 -1.66 -1.86 0.99 14.17 0 0 -76.98 31.15 6.45 26.12 0 0 -0.15 -3.43 -14.50 27.71 0 0 -3.54 -20.28 -3.81 2.29 -0.46 1.83 51.14 66.23 -68.04 5.29 0 0 -6.83 2.66 2.96 3.01 0 0 12.48 0 0 9.37 0.29 2.59 -21.05 -0.78 -0.03 4.34 0 0 -24.42 -0.52 3.30 2.16 0 0 -2.16 0 0 9.47 0.83 0.29 -21.37 -4.11 -0.22 4.77 0 0 -26.52 -0.57 2.24 2.87 0 0 3.95 0.07 0.39 8.65 1.01 -1.70 -22.24 -3.00 -1.04 4.54 0 0 -57.82 1.79 -2.71 2.50 0 0 6.76 0 0 7.69 0.66 -3.90 -28.18 -13.27 1.52 3.21 0 0 -67.18 -1.47 5.02 1.92 0 0 4.41 0 0 -4.06 26.61 -1.12 -0.24 -0.01 -2.68 -14.17 0 0 74.50 24.26 -5.42 -26.12 0 0 0.31 -1.04 21.47 -27.71 0 0 -3.65 -18.96 -7.01 -2.29 -0.46 1.83 -46.38 62.83 69.08 -5.29 0 0 7.60 2.62 -3.80 -3.01 0 0 -12.48 0 0 -9.37 0.29 2.59 23.30 -2.96 -2.17 -4.34 0 0 24.62 -0.62 -3.84 -2.16 0 0 2.16 0 0 -9.47 0.83 0.29 36.35 -5.88 -1.18 -4.77 0 0 11.79 -15.97 -1.85 -2.87 0 0 -3.95 0.07 -0.39 -8.65 1.01 -1.70 40.44 0.29 -1.57 -4.54 0 0 14.10 0.25 1.48 -2.50 0 0 -6.76 0 0 -7.69 0.66 -3.90 45.96 -12.93 -2.58 -3.21 0 0 32.22 -0.25 1.35 -1.92 0 0 -4.41 0 0 8.73 -0 0 8.23 -24.26 15.34 0 -46.66 0 8.46 58.56 -4.69 0 -40.14 0 -7.48 -6.53 5.99 0 -8.88 14.22 0 0 0 -8.73 0 -0 1.81 -8.45 -17.78 0 -46.66 0 -3.02 32.82 0.50 0 -40.14 0 -2.97 -22.91 -7.55 0 -8.88 14.22 0 0 0 
-0.11 93.81 -0.52 0.23 -1.92 2.44 0 7.23 0 0.97 1.03 2.11 0 16.54 0 1.19 3.96 4.15 0 34.21 0 -0.49 19.42 -1.28 0 6.29 0 -0.73 -15.78 -7.10 4.06 26.61 -1.12 -1.45 -1.84 1.41 14.17 0 0 -77.95 31.61 8.73 26.12 0 0 -0.15 -3.44 -14.87 27.71 0 0 -3.70 -21.69 -5.04 2.29 -0.46 1.83 51.03 66.10 -68.08 5.29 0 0 -6.83 2.66 2.96 3.01 0 0 12.48 0 0 9.37 0.29 2.59 -21.27 -0.78 -0 4.34 0 0 -24.64 -0.53 3.33 2.16 0 0 -2.16 0 0 9.47 0.83 0.29 -21.59 -4.11 -0.22 4.77 0 0 -26.74 -0.57 2.26 2.87 0 0 3.95 0.07 0.39 8.65 1.01 -1.70 -22.46 -3.00 -1.06 4.54 0 0 -58.04 1.80 -2.71 2.50 0 0 6.76 0 0 7.69 0.66 -3.90 -28.41 -13.28 1.50 3.21 0 0 -67.40 -1.49 5.04 1.92 0 0 4.41 0 0 -4.06 26.61 -1.12 0 -0.13 -1.92 -14.17 0 0 72.59 25.18 -4.26 -26.12 0 0 0.34 -1.03 23.87 -27.71 0 0 -4.46 -20.36 -8.76 -2.29 -0.46 1.83 -46.38 62.83 69.08 -5.29 0 0 7.60 2.62 -3.80 -3.01 0 0 -12.48 0 0 -9.37 0.29 2.59 23.23 -2.96 -2.17 -4.34 0 0 24.54 -0.62 -3.83 -2.16 0 0 2.16 0 0 -9.47 0.83 0.29 36.27 -5.88 -1.18 -4.77 0 0 11.72 -15.95 -1.85 -2.87 0 0 -3.95 0.07 -0.39 -8.65 1.01 -1.70 40.37 0.29 -1.58 -4.54 0 0 14.03 0.25 1.47 -2.50 0 0 -6.76 0 0 -7.69 0.66 -3.90 45.90 -12.92 -2.59 -3.21 0 0 32.16 -0.25 1.35 -1.92 0 0 -4.41 0 0 8.73 -0 0 7.15 -25.55 15.03 0 -46.66 0 5.97 49.25 -3.10 0 -40.14 0 -8.09 -7.80 9.45 0 -8.88 14.22 0 0 0 -8.73 0 -0 1.64 -5.70 -18.04 0 -46.66 0 -2.60 29.88 0.07 0 -40.14 0 -2.36 -23.11 -6.20 0 -8.88 14.22 0 0 -0 
-0 93.99 -1.00 0.56 -1.41 1.59 0 7.23 0 0.69 0.93 2.50 0 16.54 0 0.99 3.74 4.90 0 34.21 0 -0.65 19.30 -1.35 0 6.29 0 -0.77 -15.96 -7.29 4.06 26.61 -1.12 -1.41 -1.83 1.73 14.17 0 0 -79.16 32.07 11.53 26.12 0 0 -0.16 -3.45 -15.52 27.71 0 0 -3.80 -22.42 -5.82 2.29 -0.46 1.83 50.85 65.81 -68.18 5.29 0 0 -6.83 2.66 2.96 3.01 0 0 12.48 0 0 9.37 0.29 2.59 -21.43 -0.78 0.01 4.34 0 0 -24.81 -0.54 3.34 2.16 0 0 -2.16 0 0 9.47 0.83 0.29 -21.76 -4.11 -0.22 4.77 0 0 -26.91 -0.58 2.26 2.87 0 0 3.95 0.07 0.39 8.65 1.01 -1.70 -22.63 -2.99 -1.08 4.54 0 0 -58.21 1.81 -2.72 2.50 0 0 6.76 0 0 7.69 0.66 -3.90 -28.58 -13.28 1.48 3.21 0 0 -67.56 -1.50 5.05 1.92 0 0 4.41 0 0 -4.06 26.61 -1.12 0.06 -0.24 -1.17 -14.17 0 0 70.67 25.46 -3.10 -26.12 0 0 0.38 -1.00 26.14 -27.71 0 0 -4.23 -20.90 -9.94 -2.29 -0.46 1.83 -46.38 62.83 69.08 -5.29 0 0 7.60 2.62 -3.80 -3.01 0 0 -12.48 0 0 -9.37 0.29 2.59 23.15 -2.96 -2.16 -4.34 0 0 24.46 -0.61 -3.82 -2.16 0 0 2.16 0 0 -9.47 0.83 0.29 36.19 -5.88 -1.18 -4.77 0 0 11.64 -15.93 -1.84 -2.87 0 0 -3.95 0.07 -0.39 -8.65 1.01 -1.70 40.30 0.29 -1.58 -4.54 0 0 13.96 0.25 1.47 -2.50 0 0 -6.76 0 0 -7.69 0.66 -3.90 45.84 -12.92 -2.60 -3.21 0 0 32.10 -0.25 1.36 -1.92 0 0 -4.41 0 0 8.73 -0 0 5.96 -26.25 14.29 0 -46.66 0 4.00 38.74 -1.70 0 -40.14 0 -7.53 -8.33 11.99 0 -8.88 14.22 0 0 0 -8.73 0 -0 1.32 -3.46 -18.26 0 -46.66 0 -2.35 27.75 0.16 0 -40.14 0 -1.81 -23.63 -5.13 0 -8.88 14.22 0 0 -0 
0.05 93.99 -1.57 0.58 -0.71 0.87 0 7.23 0 0.49 0.78 2.79 0 16.54 0 0.92 3.44 5.49 0 34.21 0 -0.77 19.15 -1.41 0 6.29 0 -0.64 -16.40 -7.31 4.06 26.61 -1.12 -1.47 -1.82 1.99 14.17 0 0 -80.47 32.40 14.93 26.12 0 0 -0.19 -3.45 -17.25 27.71 0 0 -3.46 -22.43 -6.05 2.29 -0.46 1.83 50.61 65.26 -68.39 5.29 0 0 -6.83 2.66 2.96 3.01 0 0 12.48 0 0 9.37 0.29 2.59 -21.38 -0.78 0 4.34 0 0 -24.76 -0.54 3.34 2.16 0 0 -2.16 0 0 9.47 0.83 0.29 -21.71 -4.11 -0.22 4.77 0 0 -26.86 -0.58 2.26 2.87 0 0 3.95 0.07 0.39 8.65 1.01 -1.70 -22.58 -2.99 -1.08 4.54 0 0 -58.16 1.80 -2.71 2.50 0 0 6.76 0 0 7.69 0.66 -3.90 -28.53 -13.28 1.48 3.21 0 0 -67.52 -1.50 5.05 1.92 0 0 4.41 0 0 -4.06 26.61 -1.12 0 -0.35 -0.50 -14.17 0 0 68.93 25.06 -1.50 -26.12 0 0 0.39 -0.99 27.24 -27.71 0 0 -3.11 -21.01 -10 -2.29 -0.46 1.83 -46.38 62.83 69.08 -5.29 0 0 7.60 2.62 -3.80 -3.01 0 0 -12.48 0 0 -9.37 0.29 2.59 23.07 -2.96 -2.15 -4.34 0 0 24.38 -0.60 -3.81 -2.16 0 0 2.16 0 0 -9.47 0.83 0.29 36.11 -5.87 -1.18 -4.77 0 0 11.56 -15.90 -1.84 -2.87 0 0 -3.95 0.07 -0.39 -8.65 1.01 -1.70 40.23 0.29 -1.59 -4.54 0 0 13.89 0.25 1.46 -2.50 0 0 -6.76 0 0 -7.69 0.66 -3.90 45.77 -12.92 -2.61 -3.21 0 0 32.03 -0.25 1.36 -1.92 0 0 -4.41 0 0 8.73 -0 0 5.23 -26.82 13.47 0 -46.66 0 2.48 27.96 -0.75 0 -40.14 0 -6.80 -8.67 12.85 0 -8.88 14.22 0 0 -0 -8.73 0 -0 1.38 -1.60 -18.15 0 -46.66 0 -2.15 25.84 0.22 0 -40.14 0 -1.30 -24.21 -4.55 0 -8.88 14.22 0 0 0 
